<svg width="104" height="60" viewBox="0 0 104 60" fill="none" xmlns="http://www.w3.org/2000/svg">
<path d="M88.9475 16.1376C68.3417 -4.36357 34.8169 -4.36357 14.2111 16.1376L0.447937 29.8292L14.5525 43.8622C24.8546 54.1119 38.3872 59.2385 51.9216 59.2385C65.456 59.2385 78.9869 54.1136 89.2907 43.8622L103.054 30.1689L88.9475 16.1376ZM86.8382 41.4239C67.5843 60.5783 36.2571 60.5783 17.0033 41.4239L5.34937 29.8292L16.6618 18.5741C35.9157 -0.58028 67.2429 -0.58028 86.4968 18.5741L98.1507 30.1689L86.8382 41.4239Z" fill="white"/>
<path d="M49.9683 16.1531C43.2782 16.1531 37.8361 21.5676 37.8361 28.2237C37.8361 29.1756 38.6125 29.9481 39.5692 29.9481C40.526 29.9481 41.3024 29.1756 41.3024 28.2237C41.3024 23.4696 45.1899 19.6018 49.9683 19.6018C50.925 19.6018 51.7015 18.8293 51.7015 17.8775C51.7015 16.9256 50.9268 16.1531 49.9683 16.1531Z" fill="white"/>
<path d="M51.7015 7.53125C39.2781 7.53125 29.1702 17.5878 29.1702 29.9482C29.1702 42.3086 39.2781 52.3651 51.7015 52.3651C64.1249 52.3651 74.2328 42.3086 74.2328 29.9482C74.2328 17.5878 64.1266 7.53125 51.7015 7.53125ZM51.7015 48.9164C41.1898 48.9164 32.6365 40.4066 32.6365 29.9482C32.6365 19.4898 41.1898 10.98 51.7015 10.98C62.2132 10.98 70.7664 19.4898 70.7664 29.9482C70.7664 40.4066 62.2149 48.9164 51.7015 48.9164Z" fill="white"/>
</svg>
